<svg width="16" height="16" viewBox="0 0 16 16" fill="none" xmlns="http://www.w3.org/2000/svg">
<g id="fi_190411" clip-path="url(#clip0_53_67)">
<path id="Vector" d="M8 16C12.4183 16 16 12.4183 16 8C16 3.58172 12.4183 0 8 0C3.58172 0 0 3.58172 0 8C0 12.4183 3.58172 16 8 16Z" fill="#32BA7C"/>
<path id="Vector_2" d="M5.95605 11.6088L10.0696 15.7224C13.4766 14.8138 16.0002 11.7097 16.0002 7.99997C16.0002 7.92426 16.0002 7.84855 16.0002 7.77284L12.7699 4.79492L5.95605 11.6088Z" fill="#0AA06E"/>
<g id="Group">
<path id="Vector_3" d="M8.2017 9.79165C8.55501 10.145 8.55501 10.7506 8.2017 11.104L7.46983 11.8358C7.11652 12.1891 6.51084 12.1891 6.15753 11.8358L2.95248 8.60553C2.59917 8.25222 2.59917 7.64654 2.95248 7.29323L3.68435 6.56137C4.03766 6.20806 4.64334 6.20806 4.99665 6.56137L8.2017 9.79165Z" fill="white"/>
<path id="Vector_4" d="M11.0031 4.21445C11.3564 3.86113 11.9621 3.86113 12.3154 4.21445L13.0472 4.94631C13.4005 5.29962 13.4005 5.9053 13.0472 6.25861L7.49518 11.7854C7.14187 12.1387 6.53619 12.1387 6.18288 11.7854L5.45102 11.0536C5.09771 10.7003 5.09771 10.0946 5.45102 9.74126L11.0031 4.21445Z" fill="white"/>
</g>
</g>
<defs>
<clipPath id="clip0_53_67">
<rect width="16" height="16" fill="white"/>
</clipPath>
</defs>
</svg>
