<svg width="16" height="16" viewBox="0 0 16 16" fill="none" xmlns="http://www.w3.org/2000/svg">
<g id="fi_6711656" clip-path="url(#clip0_53_368)">
<g id="Group">
<path id="Vector" d="M8 15.5C12.1421 15.5 15.5 12.1421 15.5 8C15.5 3.85786 12.1421 0.5 8 0.5C3.85786 0.5 0.5 3.85786 0.5 8C0.5 12.1421 3.85786 15.5 8 15.5Z" fill="#FF5A54"/>
<path id="Vector_2" fill-rule="evenodd" clip-rule="evenodd" d="M15.4982 8.14604C15.4212 12.1721 12.1721 15.4212 8.14604 15.4982C6.87204 14.2242 5.59463 12.953 4.32082 11.6792C3.9875 11.3459 3.98747 10.8005 4.32079 10.4672L6.78794 8L4.32079 5.53285C3.98747 5.19954 3.98747 4.65413 4.32079 4.32082C4.6541 3.9875 5.1995 3.98747 5.53285 4.32079L8 6.78794L10.4672 4.32079C10.8005 3.98747 11.3459 3.98747 11.6792 4.32079C12.953 5.5946 14.2242 6.87204 15.4982 8.14604Z" fill="#DB3A3C"/>
<path id="Vector_3" fill-rule="evenodd" clip-rule="evenodd" d="M4.32079 11.6792C4.6541 12.0125 5.19954 12.0125 5.53285 11.6792L8 9.21207L10.4672 11.6792C10.8005 12.0125 11.3459 12.0125 11.6792 11.6792C12.0125 11.3459 12.0125 10.8005 11.6792 10.4672L9.21207 8L11.6792 5.53285C12.0125 5.19954 12.0125 4.65413 11.6792 4.32082C11.3459 3.9875 10.8005 3.9875 10.4672 4.32082L8 6.78794L5.53285 4.32079C5.19954 3.98747 4.65413 3.98747 4.32082 4.32079C3.9875 4.6541 3.9875 5.1995 4.32082 5.53282L6.78794 8L4.32079 10.4672C3.98747 10.8005 3.98747 11.3459 4.32079 11.6792Z" fill="white"/>
</g>
</g>
<defs>
<clipPath id="clip0_53_368">
<rect width="16" height="16" fill="white"/>
</clipPath>
</defs>
</svg>
