<svg width="37" height="36" viewBox="0 0 37 36" fill="none" xmlns="http://www.w3.org/2000/svg">
<g id="Frame">
<path id="Vector" d="M8.16602 30L11.7853 26.3806M11.7853 26.3806C12.9917 27.5871 14.6584 28.3334 16.4994 28.3334C20.1813 28.3334 23.166 25.3485 23.166 21.6666C23.166 17.9847 20.1813 15 16.4994 15C12.8175 15 9.83268 17.9847 9.83268 21.6666C9.83268 23.5075 10.5789 25.1743 11.7853 26.3806Z" stroke="#A9E000" stroke-width="2" stroke-linecap="round"/>
<path id="Vector_2" d="M5.16602 22.7816C4.21193 21.1371 3.66602 19.2287 3.66602 17.1935C3.66602 11.0115 8.70281 6 14.916 6H22.416C28.6292 6 33.666 11.0115 33.666 17.1935C33.666 22.0671 30.5355 26.2134 26.166 27.75" stroke="#A9E000" stroke-width="2" stroke-linecap="round"/>
</g>
</svg>
