<svg width="36" height="36" viewBox="0 0 36 36" fill="none" xmlns="http://www.w3.org/2000/svg">
<g id="Frame">
<path id="Vector" d="M16.5 31.5H15C9.34314 31.5 6.51473 31.5 4.75736 29.7426C3 27.9854 3 25.1568 3 19.5V15C3 9.34314 3 6.51473 4.75736 4.75736C6.51473 3 9.34314 3 15 3H18C23.6568 3 26.4853 3 28.2426 4.75736C30 6.51473 30 9.34314 30 15V15.75" stroke="#A9E000" stroke-width="2" stroke-linecap="round" stroke-linejoin="round"/>
<path id="Vector_2" d="M26.1103 21.6054C26.4288 20.7982 27.5712 20.7982 27.8896 21.6054L27.9447 21.7453C28.7223 23.7169 30.283 25.2777 32.2546 26.0553L32.3946 26.1103C33.2017 26.4288 33.2017 27.5712 32.3946 27.8896L32.2546 27.9447C30.283 28.7223 28.7223 30.283 27.9447 32.2546L27.8896 32.3946C27.5712 33.2017 26.4288 33.2017 26.1103 32.3946L26.0553 32.2546C25.2777 30.283 23.7169 28.7223 21.7453 27.9447L21.6054 27.8896C20.7982 27.5712 20.7982 26.4288 21.6054 26.1103L21.7453 26.0553C23.7169 25.2777 25.2777 23.7169 26.0553 21.7453L26.1103 21.6054Z" stroke="#A9E000" stroke-width="2" stroke-linecap="round" stroke-linejoin="round"/>
<path id="Vector_3" d="M10.5 10.5H22.5M10.5 17.25H22.5M10.5 24H16.5" stroke="#A9E000" stroke-width="2" stroke-linecap="round" stroke-linejoin="round"/>
</g>
</svg>
