<svg width="28" height="28" viewBox="0 0 28 28" fill="none" xmlns="http://www.w3.org/2000/svg">
<g id="Frame">
<path id="Vector" d="M5.99935 16.3334C5.15292 14.9429 4.66602 13.3138 4.66602 11.572C4.66602 6.46966 8.84469 2.33337 13.9993 2.33337C19.154 2.33337 23.3327 6.46966 23.3327 11.572C23.3327 13.3138 22.8458 14.9429 21.9993 16.3334" stroke="black" stroke-width="2" stroke-linecap="round"/>
<path id="Vector_2" d="M16.3327 11.6666C15.6181 12.417 14.829 12.8333 13.9993 12.8333C13.1697 12.8333 12.3806 12.417 11.666 11.6666" stroke="black" stroke-width="2" stroke-linecap="round"/>
<path id="Vector_3" d="M8.614 19.9479C8.50682 19.6252 8.45323 19.4638 8.45947 19.3331C8.47268 19.0566 8.64698 18.8139 8.90415 18.7139C9.02574 18.6666 9.19521 18.6666 9.53415 18.6666H18.4671C18.8062 18.6666 18.9756 18.6666 19.0971 18.7139C19.3544 18.8139 19.5287 19.0566 19.5419 19.3331C19.548 19.4638 19.4945 19.6252 19.3873 19.9479C19.1892 20.5443 19.0901 20.8426 18.9374 21.084C18.6174 21.5898 18.1157 21.9528 17.5364 22.0976C17.2597 22.1666 16.9465 22.1666 16.3201 22.1666H11.6812C11.0548 22.1666 10.7416 22.1666 10.465 22.0976C9.88562 21.9528 9.38393 21.5898 9.0639 21.084C8.91113 20.8426 8.81209 20.5443 8.614 19.9479Z" stroke="black" stroke-width="2"/>
<path id="Vector_4" d="M17.5 22.1666L17.3491 22.921C17.1842 23.7459 17.1017 24.1584 16.9168 24.4843C16.6311 24.9882 16.1679 25.3678 15.6177 25.5493C15.2619 25.6666 14.8413 25.6666 14 25.6666C13.1587 25.6666 12.7381 25.6666 12.3823 25.5493C11.8321 25.3678 11.369 24.9882 11.0832 24.4843C10.8983 24.1584 10.8159 23.7459 10.6509 22.921L10.5 22.1666" stroke="black" stroke-width="2"/>
<path id="Vector_5" d="M14 18.0834V12.8334" stroke="black" stroke-width="2" stroke-linecap="round" stroke-linejoin="round"/>
</g>
</svg>
