<svg width="37" height="36" viewBox="0 0 37 36" fill="none" xmlns="http://www.w3.org/2000/svg">
<g id="Frame">
<path id="Vector" d="M25.084 30V26.9556C25.084 25.0921 24.245 23.2649 22.5494 22.4919C20.4812 21.5492 18.0008 21 15.334 21C12.6672 21 10.1867 21.5492 8.1185 22.4919C6.42289 23.2649 5.58398 25.0921 5.58398 26.9556V30" stroke="#A9E000" stroke-width="2" stroke-linecap="round" stroke-linejoin="round"/>
<path id="Vector_2" d="M31.084 30.0015V26.9569C31.084 25.0935 30.245 23.2663 28.5494 22.4934C28.1585 22.3152 27.7528 22.1509 27.334 22.002" stroke="#A9E000" stroke-width="2" stroke-linecap="round" stroke-linejoin="round"/>
<path id="Vector_3" d="M15.334 16.5C18.2335 16.5 20.584 14.1495 20.584 11.25C20.584 8.35051 18.2335 6 15.334 6C12.4345 6 10.084 8.35051 10.084 11.25C10.084 14.1495 12.4345 16.5 15.334 16.5Z" stroke="#A9E000" stroke-width="2" stroke-linecap="round" stroke-linejoin="round"/>
<path id="Vector_4" d="M22.834 6.2168C25.0025 6.86222 26.584 8.87112 26.584 11.2494C26.584 13.6277 25.0025 15.6366 22.834 16.2821" stroke="#A9E000" stroke-width="2" stroke-linecap="round" stroke-linejoin="round"/>
</g>
</svg>
