<?xml version="1.0" encoding="utf-8"?>
<!-- Generator: Adobe Illustrator 28.3.0, SVG Export Plug-In . SVG Version: 6.00 Build 0)  -->
<svg version="1.1" id="Layer_1" xmlns="http://www.w3.org/2000/svg" xmlns:xlink="http://www.w3.org/1999/xlink" x="0px" y="0px"
	 viewBox="0 0 292.8 85.8" style="enable-background:new 0 0 292.8 85.8;" xml:space="preserve">
<style type="text/css">
	.st0{fill:#D3A644;}
	.st1{fill:#0098D3;}
	.st2{fill:none;stroke:#0098D3;stroke-width:4.200000e-02;}
</style>
<path class="st0" d="M280.2,25.5c0,8.4-6,15.3-14.7,15.3c-8.7,0-14.9-7-14.9-15.4v-0.1c0-8.4,6-15.3,14.7-15.3s14.9,7,14.9,15.4
	V25.5z M265.5,0c-13,0-22.9,8.4-25.5,19.5h-4.3l-3.6,2.5l0,0l0,0l0,0l0,0l-3.6-2.5H95.7l4.4-3.7V0.7H88.9v18.9H64l3.9-3.3V0.7H56.9
	v18.9v1.3v10.8h171.5l3.6-2.5l0,0l0,0l3.6,2.5h4.4c2.6,10.7,11.8,18.6,24.1,19.1h2.4c14.5-0.6,25-11.8,25-25.4v-0.1
	C291.5,11.3,280.6,0,265.5,0"/>
<polygon points="198.6,17 209.4,17 209.4,10.8 224.3,10.8 224.3,0.8 183.6,0.8 183.6,10.8 198.6,10.8 "/>
<polygon points="143.4,17 131.1,0.8 121.1,0.8 121.1,17 "/>
<path d="M2.5,43.3l6.8-7.6c2.8,3.1,5.6,4.9,9,4.9c4.1,0,6.6-2.5,6.6-8.1V0.8H36V33c0,5.8-1.7,10.2-4.6,13.1c-3,3-7.4,4.6-12.8,4.6
	C10.9,50.7,5.9,47.3,2.5,43.3"/>
<rect x="198.6" y="34.3" width="10.8" height="15.7"/>
<polygon points="143.6,34.3 155.6,50 164.8,50 164.8,34.3 "/>
<path d="M88,34.3c-1.5,4.3-4.9,6.5-9.8,6.5c-4.8,0-8.2-2.2-9.7-6.5H57.2C59,45.2,66.6,50.8,78,50.8c11.4,0,19.1-5.4,21.1-16.5H88z"
	/>
<polygon points="131.1,0.8 121.1,0.8 121.1,50 131.8,50 131.8,1.7 "/>
<polygon points="154.1,0.8 154.1,48 155.6,50 164.8,50 164.8,0.8 "/>
<path class="st1" d="M236.7,83.6h1.7v-1.9h-1.7V83.6z M224.1,83.8c2.3,0,3.7-0.9,5.1-2.2l-0.9-0.9c-1.2,1.2-2.4,1.8-4.1,1.8
	c-2.8,0-4.9-2.3-4.9-5.2v0c0-2.9,2.1-5.2,4.9-5.2c1.7,0,2.9,0.7,4,1.7l1-1.1c-1.3-1.2-2.6-2-4.9-2c-3.7,0-6.4,3-6.4,6.5v0
	C217.8,80.9,220.4,83.8,224.1,83.8 M202.5,83.6h8.5v-1.3h-7.1V70.9h-1.4L202.5,83.6L202.5,83.6z M185.9,83.6h8.5v-1.3h-7.1V70.9
	h-1.4L185.9,83.6L185.9,83.6z M169,85.8c1.4-0.3,2-1,2-2.5v-1.6h-1.7v1.9h0.6c0.1,0.8-0.3,1.2-1.2,1.6L169,85.8z M150.6,83.6h1.4
	v-5.7h7.3v5.7h1.4V70.9h-1.4v5.6H152v-5.6h-1.4V83.6z M136.8,83.6h1.4V72.3h4.2v-1.3h-9.9v1.3h4.2L136.8,83.6L136.8,83.6z
	 M118.7,83.6h8.5v-1.3h-7.1V70.9h-1.4L118.7,83.6L118.7,83.6z M101.4,78.9l2.9-6.4l2.9,6.4H101.4z M97.9,83.6h1.5l1.5-3.3h6.9
	l1.5,3.3h1.5L105,70.9h-1.3L97.9,83.6z M81.5,83.6h9.2v-1.3h-7.8v-4.4h6.9v-1.3h-6.9v-4.3h7.7v-1.3h-9.1V83.6z M59.6,83.7h1.2
	l3.5-10.2l3.5,10.2H69l4.5-12.7H72l-3.6,10.5l-3.5-10.6h-1.2l-3.5,10.6l-3.6-10.5h-1.5L59.6,83.7z"/>
<path class="st2" d="M236.7,83.6h1.7v-1.9h-1.7V83.6z M224.1,83.8c2.3,0,3.7-0.9,5.1-2.2l-0.9-0.9c-1.2,1.2-2.4,1.8-4.1,1.8
	c-2.8,0-4.9-2.3-4.9-5.2v0c0-2.9,2.1-5.2,4.9-5.2c1.7,0,2.9,0.7,4,1.7l1-1.1c-1.3-1.2-2.6-2-4.9-2c-3.7,0-6.4,3-6.4,6.5v0
	C217.8,80.9,220.4,83.8,224.1,83.8z M202.5,83.6h8.5v-1.3h-7.1V70.9h-1.4L202.5,83.6L202.5,83.6z M185.9,83.6h8.5v-1.3h-7.1V70.9
	h-1.4L185.9,83.6L185.9,83.6z M169,85.8c1.4-0.3,2-1,2-2.5v-1.6h-1.7v1.9h0.6c0.1,0.8-0.3,1.2-1.2,1.6L169,85.8z M150.6,83.6h1.4
	v-5.7h7.3v5.7h1.4V70.9h-1.4v5.6H152v-5.6h-1.4V83.6z M136.8,83.6h1.4V72.3h4.2v-1.3h-9.9v1.3h4.2L136.8,83.6L136.8,83.6z
	 M118.7,83.6h8.5v-1.3h-7.1V70.9h-1.4L118.7,83.6L118.7,83.6z M101.4,78.9l2.9-6.4l2.9,6.4H101.4z M97.9,83.6h1.5l1.5-3.3h6.9
	l1.5,3.3h1.5L105,70.9h-1.3L97.9,83.6z M81.5,83.6h9.2v-1.3h-7.8v-4.4h6.9v-1.3h-6.9v-4.3h7.7v-1.3h-9.1V83.6z M59.6,83.7h1.2
	l3.5-10.2l3.5,10.2H69l4.5-12.7H72l-3.6,10.5l-3.5-10.6h-1.2l-3.5,10.6l-3.6-10.5h-1.5L59.6,83.7z"/>
</svg>
